{
  "asset": {
    "version": "2.0",
    "generator": "Sketchup glTF Exporter v1.2.6 by Centaur"
  },
  "scene": 0,
  "scenes": [
    {
      "nodes": [
        0
      ]
    }
  ],
  "samplers": [
    {
    }
  ],
  "nodes": [
    {
      "name": "root",
      "mesh": 0
    }
  ],
  "materials": [
    {
      "pbrMetallicRoughness": {
        "baseColorFactor": [
          0.2176,
          0.2176,
          0.2176,
          1.0
        ],
        "metallicFactor": 0.1,
        "roughnessFactor": 0.9
      },
      "name": "default material",
      "doubleSided": true
    },
    {
      "pbrMetallicRoughness": {
        "baseColorFactor": [
          0.3838,
          0.0189,
          0.0189,
          1.0
        ],
        "metallicFactor": 0.1,
        "roughnessFactor": 0.9
      },
      "name": "0018_Brown"
    },
    {
      "pbrMetallicRoughness": {
        "baseColorFactor": [
          1.0,
          0.3587,
          0.1975,
          1.0
        ],
        "metallicFactor": 0.1,
        "roughnessFactor": 0.9
      },
      "name": "0026_LightSalmon"
    },
    {
      "pbrMetallicRoughness": {
        "baseColorFactor": [
          0.1332,
          0.0,
          0.029,
          1.0
        ],
        "metallicFactor": 0.1,
        "roughnessFactor": 0.9
      },
      "name": "Color L16"
    }
  ],
  "meshes": [
    {
      "primitives": [
        {
          "attributes": {
            "POSITION": 0,
            "NORMAL": 1
          },
          "indices": 2,
          "mode": 4,
          "material": 0
        },
        {
          "attributes": {
            "POSITION": 0,
            "NORMAL": 1
          },
          "indices": 3,
          "mode": 4,
          "material": 1
        },
        {
          "attributes": {
            "POSITION": 0,
            "NORMAL": 1
          },
          "indices": 4,
          "mode": 4,
          "material": 2
        },
        {
          "attributes": {
            "POSITION": 0,
            "NORMAL": 1
          },
          "indices": 5,
          "mode": 4,
          "material": 3
        }
      ]
    }
  ],
  "accessors": [
    {
      "bufferView": 0,
      "componentType": 5126,
      "count": 174,
      "type": "VEC3",
      "min": [
        -3.184081677783118e-17,
        -5.2659812363336195e-17,
        -0.8600000000000001
      ],
      "max": [
        2.7900000000000005,
        1.7417600061378329,
        0.13000000000000062
      ]
    },
    {
      "bufferView": 1,
      "componentType": 5126,
      "count": 174,
      "type": "VEC3",
      "min": [
        -1.0,
        -1.0,
        -1.0
      ],
      "max": [
        1.0,
        1.0,
        1.0
      ]
    },
    {
      "bufferView": 2,
      "componentType": 5121,
      "count": 234,
      "type": "SCALAR"
    },
    {
      "bufferView": 2,
      "componentType": 5121,
      "count": 60,
      "type": "SCALAR",
      "byteOffset": 234
    },
    {
      "bufferView": 2,
      "componentType": 5121,
      "count": 24,
      "type": "SCALAR",
      "byteOffset": 294
    },
    {
      "bufferView": 2,
      "componentType": 5121,
      "count": 30,
      "type": "SCALAR",
      "byteOffset": 318
    }
  ],
  "bufferViews": [
    {
      "buffer": 0,
      "byteLength": 2088,
      "target": 34962,
      "byteStride": 12
    },
    {
      "buffer": 0,
      "byteOffset": 2088,
      "byteLength": 2088,
      "target": 34962,
      "byteStride": 12
    },
    {
      "buffer": 0,
      "byteOffset": 4176,
      "byteLength": 348,
      "target": 34963
    }
  ],
  "buffers": [
    {
      "uri": "data:application/octet-stream;base64,",
      "byteLength": 4524
    }
  ]
}